<?xml version="1.0" encoding="UTF-8" standalone="no"?>
<svg
   id="Layer_1"
   version="1.1"
   viewBox="0 0 245.76 245.76"
   sodipodi:docname="icon-inkscape.svg"
   inkscape:version="1.4 (86a8ad7, 2024-10-11)"
   xmlns:inkscape="http://www.inkscape.org/namespaces/inkscape"
   xmlns:sodipodi="http://sodipodi.sourceforge.net/DTD/sodipodi-0.dtd"
   xmlns="http://www.w3.org/2000/svg"
   xmlns:svg="http://www.w3.org/2000/svg">
  <sodipodi:namedview
     id="namedview2"
     pagecolor="#ffffff"
     bordercolor="#000000"
     borderopacity="0.25"
     inkscape:showpageshadow="2"
     inkscape:pageopacity="0.0"
     inkscape:pagecheckerboard="true"
     inkscape:deskcolor="#d1d1d1"
     showborder="false"
     inkscape:zoom="5.0926881"
     inkscape:cx="132.05207"
     inkscape:cy="132.73933"
     inkscape:window-width="3840"
     inkscape:window-height="2054"
     inkscape:window-x="3829"
     inkscape:window-y="-11"
     inkscape:window-maximized="1"
     inkscape:current-layer="Layer_1" />
  <!-- Generator: Adobe Illustrator 30.1.0, SVG Export Plug-In . SVG Version: 2.1.1 Build 136)  -->
  <defs
     id="defs1">
    <style
       id="style1">
      .st0 {
        fill: #fff;
      }
    </style>
  </defs>
  <path
     d="m 170.4373,245.75999 -92.0353,0.0471 c -8.562153,0 -15.932505,-8.54647 -15.948186,-16.98317 L 62.375406,36.598827 c 0,-9.31487 6.96263,-17.767251 16.387271,-17.829978 L 97.345371,18.643396 V 10.14397 c 0.01568,-4.626072 3.575409,-9.0796461 8.530789,-9.0796461 l 36.49108,-0.031363 c 5.15925,0 8.84442,4.2026685 8.86011,9.1423721 l 0.0314,8.468063 19.46086,0.203861 c 8.15443,0.07841 15.41501,8.123068 15.41501,16.622495 V 228.87091 c 0.0157,8.15443 -7.00967,16.92045 -15.68159,16.92045 z m -61.53459,-60.68778 46.43321,-70.92788 -27.64665,-0.14113 12.0121,-50.541794 -46.464578,70.771054 27.787798,0.0627 -12.1062,50.77702 z"
     id="path2"
     inkscape:label="battery"
     style="fill:#31ba4b;fill-opacity:1;stroke-width:1.56816" />
  <polygon
     class="st0"
     points="145.05,133.11 174.68,87.98 167.02,120.21 184.65,120.3 155.05,165.53 162.77,133.15 "
     id="polygon2"
     transform="matrix(1.5681599,0,0,1.5681599,-134.24048,-74.505302)"
     inkscape:label="lightning"
     style="fill:#e3f201;fill-opacity:1" />
</svg>
